<svg xmlns="http://www.w3.org/2000/svg" viewBox="0 0 200 110" enable-background="new 0 0 200 110"><path fill="#f33" d="M188 16l-42.6-.2-47.3-14.8-46.2 14.3-51.9-4.5 5.7 84.5 15.6-14.9 24.9 24.5s28.7-3.7 48.3-6.6l-1.3 9.6 48.5-13.1 46.3 2.2 11-40.5-11-40.5z"/><linearGradient id="a" gradientUnits="userSpaceOnUse" x1="21.013" y1="111.004" x2="55.618" y2="48.156"><stop offset="0" stop-color="#f33"/><stop offset="1" stop-color="#801A1A"/></linearGradient><path fill="url(#a)" d="M21.3 80.4l25 24.4 5.6-89.5z"/><linearGradient id="b" gradientUnits="userSpaceOnUse" x1="119.559" y1="78.409" x2="114.957" y2="127.549"><stop offset="0" stop-color="#f33"/><stop offset="1" stop-color="#801A1A"/></linearGradient><path fill="url(#b)" d="M93.2 107.8l48.5-13.1-47.2 3.5z"/><linearGradient id="c" gradientUnits="userSpaceOnUse" x1="56.417" y1="-1.191" x2="93.609" y2="126.454"><stop offset="0" stop-color="#f33"/><stop offset="1" stop-color="#801A1A"/></linearGradient><path fill="url(#c)" d="M51.9 15.3l-5.6 89.6s28.7-3.7 48.3-6.6l3.5-97.3-46.2 14.3z"/><linearGradient id="d" gradientUnits="userSpaceOnUse" x1="113.32" y1="8.144" x2="117.951" y2="94.044"><stop offset="0" stop-color="#f33"/><stop offset="1" stop-color="#801A1A"/></linearGradient><path fill="url(#d)" d="M94.5 98.2l47.2-3.5-43.6-93.7z"/><linearGradient id="e" gradientUnits="userSpaceOnUse" x1="203.708" y1="85.758" x2="146.552" y2="35.03"><stop offset="0" stop-color="#f33"/><stop offset="1" stop-color="#801A1A"/></linearGradient><path fill="url(#e)" d="M145.4 15.8l42.6 81.2 11-40.5z"/><linearGradient id="f" gradientUnits="userSpaceOnUse" x1="155.776" y1="-1.315" x2="193.266" y2="57.598"><stop offset="0" stop-color="#f33"/><stop offset="1" stop-color="#801A1A"/></linearGradient><path fill="url(#f)" d="M188 16l-42.6-.2 53.6 40.7z"/><linearGradient id="g" gradientUnits="userSpaceOnUse" x1="136.945" y1="49.672" x2="214.251" y2="114.82"><stop offset="0" stop-color="#f33"/><stop offset="1" stop-color="#801A1A"/></linearGradient><path fill="url(#g)" d="M141.7 94.7l46.3 2.3-42.6-81.2z"/><linearGradient id="h" gradientUnits="userSpaceOnUse" x1="161.645" y1="103.647" x2="109.576" y2="-20.725"><stop offset="0" stop-color="#f33"/><stop offset="1" stop-color="#801A1A"/></linearGradient><path fill="url(#h)" d="M98.1 1l43.6 93.7 3.7-78.9z"/><linearGradient id="i" gradientUnits="userSpaceOnUse" x1="5.012" y1="50.422" x2="18.401" y2="109.335"><stop offset="0" stop-color="#f33"/><stop offset=".153" stop-color="#E32D2D"/><stop offset=".414" stop-color="#B82525"/><stop offset=".65" stop-color="#991F1F"/><stop offset=".85" stop-color="#871B1B"/><stop offset=".991" stop-color="#801A1A"/></linearGradient><path fill="url(#i)" d="M5.7 95.3l15.6-14.9-21.3-69.6z"/><linearGradient id="j" gradientUnits="userSpaceOnUse" x1="-7.858" y1="4.063" x2="42.272" y2="53.389"><stop offset="0" stop-color="#f33"/><stop offset=".153" stop-color="#E32D2D"/><stop offset=".414" stop-color="#B82525"/><stop offset=".65" stop-color="#991F1F"/><stop offset=".85" stop-color="#871B1B"/><stop offset=".991" stop-color="#801A1A"/></linearGradient><path fill="url(#j)" d="M0 10.8l21.3 69.6 30.6-65.1z"/><path opacity=".45" fill="#f33" d="M188 16l-42.6-.2-47.3-14.8-46.2 14.3-51.9-4.5 5.7 84.5 15.6-14.9 24.9 24.5s28.7-3.7 48.3-6.6l-1.3 9.6 48.5-13.1 46.3 2.2 11-40.5-11-40.5z"/><g opacity=".8" fill="#fff"><path d="M164.5 61.4c-.5 0-1 .3-1 .3v1.2l-13.9 13.8c-.2-.1-.4-.2-.8-.2h-.1l-5-8.9h-.1c-.1 0-.1 0-.2.1l5 8.8c-.3.1-.5.2-.5.2v.3l-42.8-10.6-.1.3 42.9 10.6v.2l-22.9 4.6v-.4s-.3-.3-1-.3c-.5 0-1 .3-1 .3v1.4s.4.3 1 .3 1-.3 1-.3v-.7l22.9-4.6v.3s.4.3 1 .3 1-.3 1-.3v-1.1l13.9-13.8c.2.1.5.2.8.2.6 0 1-.3 1-.3v-1.4c-.2 0-.5-.3-1.1-.3zM92 51.9l4.4 2.1.1-.2-4.6-2.3zM72.1 42.2l10.5 5.1.1-.3-10.8-5.2zM134.9 52l-5.2-9.2h-.1v.4l4.9 8.8zM127.4 38.8l-12.2-21.8-.2.3 12.1 21.5zM118.7 64.6l-10.9-5.3-.1.3 11.1 5.4zM100.1 55.8l4 2 .1-.3-4-1.9z"/></g><path fill="#fff" d="M27.4 40.3h-6.6v26.1h6.6c3.6 0 6.1-.9 7.7-2.7 1.8-2 2.7-5.4 2.7-10.3 0-5-.8-8.3-2.6-10.3-1.6-2-4-2.8-7.8-2.8zm-5.6 1h5.5c6 0 9.5 2 9.5 12s-3.6 12-9.5 12h-5.5v-24zM43.6 59.2c-.3 0-.6.2-.6.2l-.1.1v1l.1.1s.3.2.6.2c.4 0 .6-.2.6-.2l.1-.1v-.9l-.1-.1c0-.1-.2-.3-.6-.3zM43.6 46.8c-.3 0-.6.2-.6.2l-.1.1v1l.1.1s.3.2.6.2c.4 0 .6-.2.6-.2l.1-.1v-.9l-.1-.2s-.2-.2-.6-.2zM57.5 52.7c-4.1-1-6.8-2-6.8-6 0-3.7 2.6-5.9 7.1-5.9 3.1 0 5.9.8 6 .8h.1l.1-.1c.2-.2.2-.4.2-.7v-.2l-.2-.1c-.1 0-2.5-.8-6.3-.8-5.1 0-8.1 2.5-8.1 6.8 0 5.1 4 6.1 7.6 7 3.4.9 6.8 1.7 6.8 6.1 0 3.8-2.7 5.9-7.5 5.9-3.5 0-6.4-1.2-6.4-1.2l-.1-.1v.3c-.2.2-.3.5-.3.7v.1l.1.1c.1.1 2.8 1.3 7 1.3 5.2 0 8.4-2.7 8.4-6.9 0-5.2-4.5-6.3-7.7-7.1zM69.8 40.4c-.1-.1-.2-.2-.5-.2s-.4.1-.5.1l-.1.1 9.9 25.8c.1.1.2.1.2.1.1 0 .1 0 .2-.1l6.9-22 .5-1.6c.1.4.2.9.4 1.6l6.9 22c.1.1.2.1.2.1.1 0 .1 0 .2-.1l20-51.5v-.1c0-.1-.1-.2-.5-.2-.3 0-.5.1-.6.3l-18.9 49.3c-.1-.5-.3-1.1-.5-1.9l-6.7-21.6c0-.1-.2-.2-.3-.2-.2 0-.3.1-.3.2l-6.7 21.6c-.3.8-.4 1.5-.6 1.9l-9.2-23.6zM141.9 47.4c0-4.4-2.7-7.1-7-7.1h-8.2v25.9l.1.1s.2.1.4.1c.3 0 .4-.1.5-.1l.1-.1v-11.7h7.7l6.8 11.7s.2.1.5.1c.2 0 .4-.1.4-.1l.2-.1-6.9-11.8c3.4-.6 5.4-3.2 5.4-6.9zm-1 0c0 3.8-2.3 6.1-5.9 6.1h-7.2v-12.2h7.2c3.6 0 5.9 2.3 5.9 6.1zM171.4 40.3c-.2-.1-.3-.1-.5-.1s-.3 0-.5.1h-.1l-10.8 17.4-10.8-17.4h-.1c-.2-.1-.3-.1-.5-.1s-.3 0-.5.1l-.1.1v26l.1.1s.2.1.5.1.4-.1.5-.2v-24.5l10.4 16.9h.1c.2.1.3.1.5.1s.3 0 .5-.1h.1l10.4-16.9v24.500000000000004c0 .1.2.2.5.2s.4-.1.5-.1l.1-.1v-26l-.3-.1zM112.9 40.2c-.1-.1-.1-.1-.2-.1s-.2 0-.2.1l-9.9 25.9.2.1s.2.1.4.1c.3 0 .4-.1.5-.1h.1l9.1-23.9 8.2 23.9h.1s.2.1.4.1.4-.1.4-.1l.1-.1-9.2-25.9z"/></svg>